<svg width="15" height="2" viewBox="0 0 15 2" fill="none" xmlns="http://www.w3.org/2000/svg">
<path d="M7.75 0.499878L8.125 0.499969L8.5 0.50006H14.25C14.4489 0.50006 14.6397 0.579077 14.7803 0.71973C14.921 0.860382 15 1.05115 15 1.25006C15 1.44897 14.921 1.63974 14.7803 1.78039C14.6397 1.92104 14.4489 2.00006 14.25 2.00006H8.5H8.125H7.75H7.375H7H1.25C1.05109 2.00006 0.860322 1.92104 0.71967 1.78039C0.579018 1.63974 0.5 1.44897 0.5 1.25006C0.5 1.05115 0.579018 0.860382 0.71967 0.71973C0.860322 0.579077 1.05109 0.50006 1.25 0.50006H7L7.375 0.499967L7.75 0.499878Z" fill="#020A0A"/>
</svg>
